# xmcd CD database file
#
# Track frame offsets:
#	182
#	15010
#	28365
#	38922
#	53550
#	66372
#	79522
#	92337
#	106315
#	120025
#	134245
#	147097
#	160525
#	174215
#	189377
#	203490
#	215487
#
# Disc length: 3060 seconds
#
# Revision: 0
# Processed by: cddbd v1.5.1PL0 Copyright (c) Steve Scherf et al.
# Submitted via: CDex 1.51
#
DISCID=cf0bf211
DTITLE=Teddy Wilson - Everytime We Say Goodbye
DYEAR=1945
DGENRE=Jazz
TTITLE0=How High the Moon
TTITLE1=Strange Interlude
TTITLE2=Rose Room
TTITLE3=It's the Talk of the Town
TTITLE4=Just Like a Butterfly
TTITLE5=Hallelugah
TTITLE6=Dinah
TTITLE7=Everytime We Say Goodbye
TTITLE8=Just You, Just Me
TTITLE9=This Heart of Mine
TTITLE10=Bugle Call Rag
TTITLE11=Running Wild
TTITLE12=Memories of You
TTITLE13=If Dreams Come True
TTITLE14=I Can't Get Started
TTITLE15=Stompin' at the Savoy
TTITLE16=Blues Too
EXTD=YEAR: 1945
EXTT0=
EXTT1=
EXTT2=
EXTT3=
EXTT4=
EXTT5=
EXTT6=
EXTT7=
EXTT8=
EXTT9=
EXTT10=
EXTT11=
EXTT12=
EXTT13=
EXTT14=
EXTT15=
EXTT16=
PLAYORDER=
